<?xml version="1.0" standalone="no"?>
<!DOCTYPE svg PUBLIC "-//W3C//DTD SVG 20010904//EN"
 "http://www.w3.org/TR/2001/REC-SVG-20010904/DTD/svg10.dtd">
<svg version="1.0" xmlns="http://www.w3.org/2000/svg"
 width="256.000000pt" height="256.000000pt" viewBox="0 0 256.000000 256.000000"
 preserveAspectRatio="xMidYMid meet">

<g transform="translate(0.000000,256.000000) scale(0.100000,-0.100000)"
fill="#000000" stroke="none">
<path d="M2059 1964 c-211 -164 -235 -186 -225 -203 9 -15 -71 -41 -125 -41
-31 0 -97 15 -167 37 -132 42 -173 44 -232 15 -37 -18 -44 -18 -81 -6 -35 13
-56 12 -157 -1 -65 -8 -170 -18 -235 -22 -105 -5 -117 -4 -112 10 8 19 -2 28
-245 216 -107 83 -201 150 -209 149 -8 -2 -18 -10 -23 -18 -13 -23 -216 -913
-211 -927 6 -15 216 -133 237 -133 9 0 23 11 32 25 l16 25 28 -20 c27 -19 27
-20 14 -61 -11 -31 -12 -50 -4 -79 13 -49 70 -100 110 -100 21 0 30 -5 30 -17
0 -9 10 -37 21 -61 17 -34 32 -49 67 -64 24 -11 54 -18 67 -16 19 4 25 -1 34
-32 19 -65 91 -105 160 -89 29 7 38 5 46 -8 20 -35 73 -82 98 -89 45 -11 92 4
146 47 l51 40 98 -55 c111 -63 149 -69 203 -33 19 12 42 39 53 61 17 35 21 37
52 31 68 -12 134 36 158 116 2 10 20 19 44 22 65 11 122 71 122 130 0 19 8 26
38 35 52 16 92 60 99 110 4 33 18 52 79 113 40 40 75 71 77 68 3 -2 16 -23 31
-46 14 -24 32 -43 40 -43 7 0 63 28 125 62 97 54 111 65 111 88 0 38 -200 903
-212 917 -6 7 -16 13 -23 13 -7 0 -109 -75 -226 -166z m295 -327 c50 -215 91
-399 94 -408 2 -8 -7 -20 -20 -26 -13 -7 -46 -26 -75 -42 l-52 -31 -34 58
c-19 31 -98 161 -177 287 -178 288 -176 284 -158 300 21 21 322 255 328 255 3
0 45 -177 94 -393z m-1884 252 c94 -73 170 -136 170 -141 0 -8 -346 -575 -372
-610 -12 -16 -19 -14 -86 24 -53 29 -73 45 -70 57 3 9 45 193 94 408 49 216
90 393 92 393 1 0 79 -59 172 -131z m1054 -199 c143 -47 215 -52 298 -20 29
11 55 16 59 12 3 -4 70 -112 149 -240 l143 -234 -69 -68 -69 -68 -299 244
c-164 134 -302 244 -306 244 -5 0 -30 -11 -57 -24 -69 -35 -134 -49 -205 -44
-58 4 -138 31 -138 47 0 11 340 191 360 191 6 0 66 -18 134 -40z m-372 0 c-17
-11 -59 -33 -92 -50 -66 -33 -100 -65 -100 -92 0 -40 29 -75 82 -99 45 -20 68
-24 153 -24 85 1 110 5 165 28 l64 26 51 -39 c27 -22 154 -124 280 -227 216
-177 230 -191 233 -225 3 -29 -2 -40 -25 -58 -15 -12 -37 -20 -48 -17 -11 2
-118 74 -238 161 -223 161 -258 179 -265 130 -4 -25 15 -40 271 -223 164 -118
181 -138 158 -187 -6 -13 -23 -29 -38 -35 -36 -14 -44 -10 -274 155 -145 103
-185 127 -198 119 -9 -5 -17 -19 -19 -30 -2 -16 35 -47 181 -152 113 -80 187
-139 190 -152 9 -32 -10 -68 -40 -80 -35 -14 -41 -10 -248 134 -163 114 -200
128 -200 77 0 -20 24 -41 140 -122 155 -108 173 -130 138 -176 -31 -42 -61
-39 -153 14 -62 36 -79 51 -74 63 17 38 15 96 -5 129 -24 37 -76 72 -107 72
-17 0 -23 8 -28 38 -8 53 -74 112 -124 112 -15 0 -21 9 -26 39 -7 43 -57 96
-101 107 -26 6 -68 2 -96 -10 -11 -5 -19 3 -30 26 -19 44 -72 78 -121 78 -47
0 -67 -10 -131 -63 l-47 -39 -35 26 c-28 22 -33 31 -25 44 5 9 76 125 158 257
l148 240 140 8 c76 4 184 13 239 21 135 19 134 19 97 -4z m-493 -586 c12 -15
21 -34 21 -43 0 -9 -34 -49 -77 -89 -68 -66 -80 -73 -111 -70 -24 2 -41 11
-55 30 -28 37 -12 68 71 141 78 67 116 75 151 31z m211 -84 c23 -23 26 -68 8
-92 -7 -9 -57 -54 -111 -102 -67 -59 -106 -86 -123 -86 -48 0 -91 69 -66 106
4 6 53 52 110 102 111 99 142 112 182 72z m150 -150 c23 -23 26 -69 8 -91 -7
-8 -50 -48 -96 -89 -93 -82 -129 -93 -164 -51 -39 50 -26 73 104 185 84 71
114 80 148 46z m147 -152 c41 -38 31 -69 -43 -137 -73 -67 -104 -76 -142 -41
-41 38 -30 71 46 139 74 67 101 74 139 39z"/>
</g>
</svg>
