<?xml version="1.0" encoding="UTF-8"?>
<svg width="272px" height="272px" viewBox="0 0 272 272" version="1.1" xmlns="http://www.w3.org/2000/svg" xmlns:xlink="http://www.w3.org/1999/xlink">
    <title>weather-sun-svgrepo-com</title>
    <g id="Page-1" stroke="none" stroke-width="1" fill="none" fill-rule="evenodd">
        <g id="weather-sun-svgrepo-com" fill="#942F2F" fill-rule="nonzero">
            <path d="M216,146.104278 L186.155936,152.956262 C188.396464,146.348024 189.349048,139.252628 188.803043,132.050572 L216,146.104278 Z M185.423693,199.713456 L159.480242,183.458341 C165.967776,180.257539 171.586985,175.825633 176.12856,170.539444 L185.423693,199.713456 Z M125.895722,216 L119.043738,186.155936 C125.651976,188.396464 132.747372,189.349048 139.949428,188.803043 L125.895722,216 Z M72.2865442,185.423693 L88.5416588,159.480242 C91.7424613,165.968111 96.1743673,171.587319 101.460556,176.12856 L72.2865442,185.423693 Z M56,125.895722 L85.8440641,119.044072 C83.6035358,125.65231 82.6509519,132.747372 83.1969573,139.949428 L56,125.895722 Z M86.5763066,72.2865442 L112.519758,88.5419932 C106.031889,91.7424613 100.412681,96.1743673 95.8714396,101.460556 L86.5763066,72.2865442 Z M146.104278,56 L152.955928,85.8440641 C146.34769,83.6035358 139.252628,82.6509519 132.050572,83.1969573 L146.104278,56 Z M199.713456,86.5763066 L183.458007,112.519758 C180.257539,106.031889 175.825633,100.413015 170.539444,95.8714396 L199.713456,86.5763066 Z M136,93.6479636 C159.390299,93.6479636 178.352036,112.609701 178.352036,136 C178.352036,159.390299 159.390299,178.352036 136,178.352036 C112.609701,178.352036 93.6479636,159.390299 93.6479636,136 C93.6479636,112.609701 112.609701,93.6479636 136,93.6479636 Z" id="Shape"></path>
        </g>
    </g>
</svg>