<?xml version="1.0" encoding="UTF-8"?>
<svg width="62px" height="62px" viewBox="0 0 62 62" version="1.1" xmlns="http://www.w3.org/2000/svg" xmlns:xlink="http://www.w3.org/1999/xlink">
    <title>avatar</title>
    <g id="Page-1" stroke="none" stroke-width="1" fill="none" fill-rule="evenodd">
        <g id="avatar">
            <path d="M51.9170416,61.515 C9.49238987,61.515 51.9170416,61.8 9.49238987,61.489 C10.2282983,59.4539068 11.0852292,48.8711121 12.957,47.785 C14.2185365,46.8522797 15.5864652,46.0728121 17.032,45.463 C14.834,37.91 20.809,34.197 23.095,33.128 C23.095,36.615 26.36,34.301 30.412,34.345 C33.748,34.382 40.345,37.74 40.345,33.31 C44.015,34.396 48.015,41.39 45.262,45.687 C46.390739,46.2389031 47.4571489,46.9100608 48.443,47.689 C49.7278667,48.5066095 50.8858806,53.1152762 51.9170416,61.515 Z" id="Path" fill="#677079"></path>
            <path d="M24.032,38.68 L38.952,38.77 L38.952,42.207 L38.945,42.26 C38.9346546,42.4156895 38.9112388,42.5702337 38.875,42.722 L38.825,43.063 L38.795,43.134 C37.829,48.208 33.602,50.169 30.992,51.535 C28.242,50.037 24.354,47.338 24.045,42.563 L24.032,42.504 L24.032,42.304 C24.0298638,42.2350178 24.0285304,42.1660132 24.028,42.097 C24.028,42.133 24.031,42.167 24.032,42.203 L24.032,38.68 Z" id="Path" fill="#F9DCA4"></path>
            <path d="M38.953,38.617 L38.953,42.622 C38.9500781,42.9932364 38.9183159,43.3636846 38.858,43.73 C38.782271,44.1834171 38.6547707,44.6266486 38.478,45.051 C33.294,48.966 25.034,45.755 23.715,39.068 L38.953,38.617 Z" id="Path" fill="#000000" fill-rule="nonzero" opacity="0.11"></path>
            <path d="M18.104,25.235 C13.164,26.505 17.364,32.525 20.471,32.499 C19.2180283,30.2542388 18.4140725,27.7870083 18.104,25.235 L18.104,25.235 Z M43.837,25.235 C48.777,26.505 44.577,32.525 41.469,32.498 C42.7223154,30.2536682 43.526616,27.7867615 43.837,25.235 Z" id="Shape" fill="#F9DCA4"></path>
            <path d="M30.733,11.361 C51.256,11.361 43.258,43.807 30.733,43.807 C18.903,43.807 10.21,11.361 30.733,11.361 Z" id="Path" fill="#FFE8BE"></path>
            <path d="M21.047,22.105 C21.4016285,22.4937013 21.5610758,23.0221315 21.4806305,23.542111 C21.4001853,24.0620905 21.0885089,24.5176338 20.633,24.781 C19.183,25.974 19.13,30.134 19.13,30.134 C18.57,29.578 18.583,26.6 17.369,24.879 C16.155,23.158 15.337,11.116 22.126,6.737 C21.2807824,7.73115163 20.9370471,9.05746168 21.193,10.337 C21.193,10.337 25.909,3.574 33.733,3.769 C32.4785266,4.45302025 31.5742411,5.63837246 31.246,7.029 C31.246,7.029 38.086,4.207 43.786,7.564 C42.3040505,7.97360221 40.9024472,8.63196686 39.641,9.511 C42.409,9.587 45.084,10.101 47.101,11.895 C46.2240115,12.1765559 45.4981095,12.8007185 45.0883021,13.6256067 C44.6784946,14.4504949 44.6195979,15.4060281 44.925,16.275 C45.781,19.778 45.861,23.037 45.032,24.789 C44.203,26.541 43.812,25.41 43.293,29.084 C43.2414331,29.5872063 42.9562274,30.0368683 42.523,30.298 C42.503,30.564 42.905,26.542 41.868,25.471 C40.832,24.401 41.483,23.086 41.897,22.308 C44.787,16.881 36.132,14.422 31.401,14.428 C27.298,14.433 17.401,16.298 21.047,22.105 L21.047,22.105 Z" id="Path" fill="#8A5C42"></path>
            <path d="M19.79,49.162 C19.82,49.2 30.208,62.645 42.42,48.962 C40.945,53.014 34.583,56.232 30.944,56.2220232 C23.994,56.202 20.148,50.622 19.79,49.162 L19.79,49.162 Z" id="Path" fill="#434955"></path>
            <path d="M36.336,61.323 C35.926,61.395 35.514,61.458 35.099,61.515 L35.099,52.578 C35.1306411,52.2666869 35.4050375,52.0375793 35.717,52.062 C36.0293361,52.0370071 36.3043594,52.2662672 36.336,52.578 L36.336,61.323 L36.336,61.323 Z M26.516,61.489 C26.1013333,61.4296667 25.689,61.363 25.279,61.289 L25.279,52.578 C25.3106411,52.2666869 25.5850375,52.0375793 25.897,52.062 C26.2097094,52.0364334 26.4853608,52.2658466 26.517,52.578 L26.516,61.489 Z" id="Shape" fill="#E6E6E6"></path>
        </g>
    </g>
</svg>